<?xml version="1.0" encoding="UTF-8" standalone="no"?>
<!-- Created with Inkscape (http://www.inkscape.org/) -->

<svg
   width="50mm"
   height="50mm"
   viewBox="0 0 49.999999 49.999999"
   version="1.1"
   id="svg1"
   xml:space="preserve"
   inkscape:version="1.3.1 (91b66b0, 2023-11-16)"
   sodipodi:docname="studenture_icons.svg"
   xmlns:inkscape="http://www.inkscape.org/namespaces/inkscape"
   xmlns:sodipodi="http://sodipodi.sourceforge.net/DTD/sodipodi-0.dtd"
   xmlns="http://www.w3.org/2000/svg"
   xmlns:svg="http://www.w3.org/2000/svg"><sodipodi:namedview
     id="namedview1"
     pagecolor="#ffffff"
     bordercolor="#000000"
     borderopacity="0.25"
     inkscape:showpageshadow="2"
     inkscape:pageopacity="0.0"
     inkscape:pagecheckerboard="0"
     inkscape:deskcolor="#d1d1d1"
     inkscape:document-units="mm"
     inkscape:zoom="1.1499765"
     inkscape:cx="80.436425"
     inkscape:cy="48.261855"
     inkscape:window-width="1432"
     inkscape:window-height="738"
     inkscape:window-x="0"
     inkscape:window-y="25"
     inkscape:window-maximized="0"
     inkscape:current-layer="layer1" /><defs
     id="defs1"><rect
       x="45.404694"
       y="253.92995"
       width="613.8042"
       height="400.23395"
       id="rect1" /></defs><g
     inkscape:label="Layer 1"
     inkscape:groupmode="layer"
     id="layer1"
     transform="translate(-21.334191,-76.616126)"><path
       id="text1"
       style="font-size:37.3333px;font-family:DigitalSans_Bold;-inkscape-font-specification:DigitalSans_Bold;white-space:pre;fill:#4bffac;stroke-width:8.36852"
       d="m 46.381667,88.794588 v 1.184424 c 0.03515,0.09837 0.06972,0.154516 0.130742,0.211873 0.05107,0.04804 0.05851,0.05265 0.122473,0.07286 0.166637,0.05274 0.312105,-8.7e-5 0.620117,-0.223759 0.192473,-0.139748 0.261565,-0.185247 0.370003,-0.244947 0.25061,-0.137888 0.533105,-0.227041 0.802535,-0.253731 0.447509,-0.04431 0.97906,0.08471 1.3193,0.320394 0.164234,0.113765 0.361498,0.311108 0.496093,0.497127 0.202079,0.279281 0.374254,0.827015 0.371554,1.180807 -6.4e-4,0.08927 -0.01832,0.252966 -0.03824,0.348816 -0.0522,0.251447 -0.151075,0.52206 -0.259932,0.713651 -0.127464,0.224416 -0.377168,0.489077 -0.60048,0.636137 -0.122059,0.0804 -0.31004,0.164501 -0.478524,0.213941 -0.405966,0.119241 -0.817634,0.122124 -1.191659,0.0078 -0.271404,-0.08298 -0.476017,-0.190971 -0.76171,-0.401526 -0.169843,-0.125161 -0.267449,-0.186841 -0.348299,-0.220141 -0.199901,-0.08235 -0.369881,-0.0433 -0.478524,0.11007 -0.026,0.03672 -0.05292,0.09453 -0.07545,0.157097 v 1.171504 h 7.114812 v 19.903755 h 7.115328 v -19.9038 h 7.163387 v -5.482352 z" /><path
       id="text1-5"
       style="font-size:37.3333px;font-family:DigitalSans_Bold;-inkscape-font-specification:DigitalSans_Bold;white-space:pre;fill:#4bbeff;fill-opacity:1;stroke-width:8.36852"
       d="m 31.740794,88.788552 c -1.489374,-0.0248 -1.839765,0.241378 -3.167249,0.798917 -0.793253,0.45841 -1.408267,1.078272 -1.845366,1.858802 -0.453288,0.792929 -0.680062,1.579533 -0.680062,2.360062 v 5.370732 c 0.05791,2.548285 2.908866,4.943885 5.595525,4.980595 h 5.123718 c -4.985977,0 1.181586,0.0555 1.651062,0.16692 0.453288,0.12389 0.680062,0.48949 0.680062,1.09657 0.03238,0.94161 0.01618,1.71631 -0.04858,2.3234 -0.06476,0.29733 -0.291534,0.52622 -0.680062,0.68729 -0.40472,0.19823 -1.003535,0.29766 -1.796789,0.29766 H 25.03836 v 5.44518 h 14.060124 c 4.646198,-0.0495 5.959346,-1.84027 6.056478,-5.37128 v -5.09171 c -0.09713,-3.27081 -1.240199,-4.94347 -5.546432,-5.0178 h -5.172294 c -1.521751,0.0495 -2.299263,-0.433615 -2.33164,-1.449524 v -1.337902 c 0,-0.38408 0.0486,-0.688056 0.145727,-0.911056 0.161888,-0.483189 0.971279,-0.724504 2.428276,-0.724504 h 11.534696 v -1.02526 c 0.0068,-0.02238 0.01339,-0.04468 0.0217,-0.0677 0.04732,-0.131021 0.09075,-0.203931 0.180868,-0.303341 0.08453,-0.09323 0.131556,-0.129539 0.225826,-0.174149 0.238003,-0.112665 0.509453,-0.07311 0.773596,0.112138 0.03213,0.02254 0.120284,0.0921 0.195854,0.154512 0.235783,0.194744 0.385001,0.285798 0.591178,0.361218 0.109765,0.04015 0.406028,0.01508 0.507675,0.02628 0.104477,0.01154 0.28663,0.0051 0.390157,-0.01395 0.111755,-0.02055 0.299097,-0.08887 0.403077,-0.146761 0.379861,-0.211505 0.681142,-0.628181 0.786515,-1.088306 0.03749,-0.1637 0.05007,-0.302912 0.05013,-0.547253 7.9e-5,-0.322975 -0.02749,-0.513837 -0.108004,-0.744141 -0.130577,-0.37354 -0.41001,-0.715468 -0.728637,-0.891418 -0.367346,-0.202854 -0.947212,-0.162391 -1.360854,0.0063 -0.173675,0.07081 -0.319938,0.163854 -0.531233,0.33848 -0.224332,0.185409 -0.347703,0.260221 -0.501262,0.303341 -0.200739,0.05633 -0.414629,0.01509 -0.58291,-0.112138 -0.08636,-0.06529 -0.191269,-0.191684 -0.242879,-0.292489 -0.02833,-0.05533 -0.0518,-0.112509 -0.0708,-0.175699 v -1.201994 z"
       sodipodi:nodetypes="cccsccsccccsccccccccscscccscssscsssssssscssccc"
       inkscape:export-filename="text1-5.png"
       inkscape:export-xdpi="96"
       inkscape:export-ydpi="96" /></g></svg>
